<?xml version="1.0" encoding="iso-8859-1"?>
<!-- Generator: Adobe Illustrator 19.0.0, SVG Export Plug-In . SVG Version: 6.00 Build 0)  -->
<svg version="1.1" id="Capa_1" xmlns="http://www.w3.org/2000/svg" xmlns:xlink="http://www.w3.org/1999/xlink" x="0px" y="0px"
	 viewBox="0 0 512 512" style="enable-background:new 0 0 512 512;" xml:space="preserve">
<path style="fill:#6B402A;" d="M494.345,248.001c-1.739,0.018-3.434-0.503-4.855-1.501L270.654,100.669
	c-8.881-5.897-20.427-5.897-29.308,0L22.51,246.5c-4.299,2.304-9.649,0.689-11.953-3.61c-2.004-3.743-1.068-8.386,2.242-11.043
	L231.548,86.015c14.813-9.86,34.092-9.86,48.905,0L499.2,231.847c4.043,2.719,5.12,8.201,2.401,12.253
	C499.977,246.518,497.258,247.975,494.345,248.001z"/>
<rect y="221.483" style="fill:#DE4C3C;" width="512" height="211.862"/>
<circle style="fill:#6B402A;" cx="256" cy="106.724" r="26.483"/>
<path style="fill:#C74436;" d="M122.439,433.38H512V221.518h-75.652C340.568,326.92,223.868,392.773,122.439,433.38z"/>
<g>
	<path style="fill:#FFFFFF;" d="M97.103,274.484h8.828c9.754,0,17.655,7.901,17.655,17.655c0,4.873,3.955,8.828,8.828,8.828
		c4.873,0,8.828-3.955,8.828-8.828c0-19.5-15.81-35.31-35.31-35.31h-8.828c-19.5,0-35.31,15.81-35.31,35.31v8.828
		c0,19.5,15.81,35.31,35.31,35.31h8.828c9.754,0,17.655,7.901,17.655,17.655v8.828c0,9.754-7.901,17.655-17.655,17.655h-8.828
		c-9.754,0-17.655-7.901-17.655-17.655c0-4.873-3.955-8.828-8.828-8.828s-8.828,3.955-8.828,8.828c0,19.5,15.81,35.31,35.31,35.31
		h8.828c19.5,0,35.31-15.81,35.31-35.31v-8.828c0-19.5-15.81-35.31-35.31-35.31h-8.828c-9.754,0-17.655-7.901-17.655-17.655v-8.828
		C79.448,282.385,87.349,274.484,97.103,274.484z"/>
	<path style="fill:#FFFFFF;" d="M220.69,263.273c-1.368-4.679-6.268-7.371-10.946-6.003c-2.895,0.847-5.155,3.107-6.003,6.003
		l-35.31,123.586c-0.971,4.776,2.119,9.437,6.894,10.408c4.281,0.865,8.554-1.527,10.055-5.641l5.385-20.039h42.196l5.385,20.039
		c1.103,3.928,4.749,6.594,8.828,6.444c0.786,0.132,1.598,0.132,2.383,0c4.749-1.095,7.706-5.835,6.612-10.593
		c-0.044-0.212-0.106-0.415-0.168-0.618L220.69,263.273z M195.796,353.932l16.066-56.143l16.066,56.143H195.796z"/>
	<path style="fill:#FFFFFF;" d="M344.276,380.415h-44.138V265.656c0-4.873-3.955-8.828-8.828-8.828
		c-4.873,0-8.828,3.955-8.828,8.828v123.586c0,4.873,3.955,8.828,8.828,8.828h52.966c4.873,0,8.828-3.955,8.828-8.828
		S349.149,380.415,344.276,380.415z"/>
	<path style="fill:#FFFFFF;" d="M441.379,336.277c4.873,0,8.828-3.955,8.828-8.828c0-4.873-3.955-8.828-8.828-8.828h-44.138v-44.138
		h44.138c4.873,0,8.828-3.955,8.828-8.828s-3.955-8.828-8.828-8.828h-52.966c-4.873,0-8.828,3.955-8.828,8.828v123.586
		c0,4.873,3.955,8.828,8.828,8.828h52.966c4.873,0,8.828-3.955,8.828-8.828s-3.955-8.828-8.828-8.828h-44.138v-44.138H441.379z"/>
</g>
<g>
</g>
<g>
</g>
<g>
</g>
<g>
</g>
<g>
</g>
<g>
</g>
<g>
</g>
<g>
</g>
<g>
</g>
<g>
</g>
<g>
</g>
<g>
</g>
<g>
</g>
<g>
</g>
<g>
</g>
</svg>
